<?xml version="1.0" encoding="utf-8"?>
<svg viewBox="706.252 562.664 307.6 353.921" xmlns="http://www.w3.org/2000/svg">
  <path d="M 7603.887 3744.513 L 5296.887 3744.513 L 5296.887 6398.923 L 7603.887 6398.923 L 7603.887 3744.513" style="fill-opacity: 1; fill-rule: nonzero; stroke: none; fill: rgb(255, 255, 219);" id="path12" transform="matrix(0.133333, 0, 0, -0.133333, 0, 1415.853271)"/>
  <path d="M 978.865 716.921 L 741.239 716.921 L 741.239 597.08 L 978.865 597.08 L 978.865 716.921 Z M 731.385 586.346 L 731.385 727.655 L 988.718 727.655 L 988.718 586.346 L 731.385 586.346" style="fill-opacity: 1; fill-rule: nonzero; stroke: none; fill: rgb(0, 100, 0);" id="path14"/>
  <g transform="matrix(1, 0, 0, 1, -4.537477, 0)">
    <g>
      <path d="M 850.943 822.413 C 850.943 851.032 827.729 874.233 799.116 874.233 C 770.503 874.233 747.303 851.032 747.303 822.413 C 747.303 793.793 770.503 770.593 799.116 770.593 C 827.729 770.593 850.943 793.793 850.943 822.413" style="fill-opacity: 1; fill-rule: nonzero; stroke: none;" id="path16"/>
      <path d="M 777.329 816.001 L 792.623 816.001 L 792.623 800.62 L 805.529 800.62 L 805.529 816.001 L 820.916 816.001 L 820.916 828.905 L 805.529 828.905 L 805.529 844.208 L 792.623 844.208 L 792.623 828.905 L 777.329 828.905 L 777.329 816.001" style="fill-opacity: 1; fill-rule: nonzero; stroke: none; fill: rgb(224, 216, 163);" id="path18"/>
      <path d="M 981.876 822.386 C 981.876 850.99 958.689 874.178 930.076 874.178 C 901.476 874.178 878.289 850.99 878.289 822.386 C 878.289 793.783 901.476 770.593 930.076 770.593 C 958.689 770.593 981.876 793.783 981.876 822.386" style="fill-opacity: 1; fill-rule: nonzero; stroke: none;" id="path20"/>
      <path d="M 908.276 825.76 L 951.889 825.76 L 951.889 838.658 L 908.276 838.658 L 908.276 825.76 Z M 908.276 806.115 L 951.889 806.115 L 951.889 819.092 L 908.276 819.092 L 908.276 806.115" style="fill-opacity: 1; fill-rule: nonzero; stroke: none; fill: rgb(224, 216, 163);" id="path22"/>
    </g>
  </g>
</svg>