<?xml version="1.0" encoding="utf-8"?>
<svg viewBox="11.119 28.181 944.618 108.154" xmlns="http://www.w3.org/2000/svg">
  <g transform="matrix(0.2504, 0, 0, 0.2504, 49.631401, 72.491898)" id="905129">
    <g style="" vector-effect="non-scaling-stroke">
      <g transform="matrix(0.1333 0 0 -0.1333 -0.0406 -0.0424)" id="path12">
        <path style="stroke: none; stroke-width: 1; stroke-dasharray: none; stroke-linecap: butt; stroke-dashoffset: 0; stroke-linejoin: miter; stroke-miterlimit: 4; is-custom-font: none; font-file-url: none; fill: rgb(255,255,219); fill-rule: nonzero; opacity: 1;" transform=" translate(-6450.387, -5071.718)" d="M 7603.887 3744.513 L 5296.887 3744.513 L 5296.887 6398.923 L 7603.887 6398.923 L 7603.887 3744.513" stroke-linecap="round"/>
      </g>
      <g transform="matrix(1 0 0 1 -0.0005 -82.624)" id="path14">
        <path style="stroke: none; stroke-width: 1; stroke-dasharray: none; stroke-linecap: butt; stroke-dashoffset: 0; stroke-linejoin: miter; stroke-miterlimit: 4; is-custom-font: none; font-file-url: none; fill: rgb(0,100,0); fill-rule: nonzero; opacity: 1;" transform=" translate(-860.0515, -657.0005)" d="M 978.865 716.921 L 741.239 716.921 L 741.239 597.08 L 978.865 597.08 L 978.865 716.921 Z M 731.385 586.346 L 731.385 727.655 L 988.718 727.655 L 988.718 586.346 L 731.385 586.346" stroke-linecap="round"/>
      </g>
      <g transform="matrix(1 0 0 1 -65.4665 82.7885)" id="path16">
        <path style="stroke: none; stroke-width: 1; stroke-dasharray: none; stroke-linecap: butt; stroke-dashoffset: 0; stroke-linejoin: miter; stroke-miterlimit: 4; is-custom-font: none; font-file-url: none; fill: rgb(0,0,0); fill-rule: nonzero; opacity: 1;" transform=" translate(-799.123, -822.413)" d="M 850.943 822.413 C 850.943 851.032 827.729 874.233 799.116 874.233 C 770.503 874.233 747.303 851.032 747.303 822.413 C 747.303 793.793 770.503 770.593 799.116 770.593 C 827.729 770.593 850.943 793.793 850.943 822.413" stroke-linecap="round"/>
      </g>
      <g transform="matrix(1 0 0 1 -65.467 82.7895)" id="path18">
        <path style="stroke: none; stroke-width: 1; stroke-dasharray: none; stroke-linecap: butt; stroke-dashoffset: 0; stroke-linejoin: miter; stroke-miterlimit: 4; is-custom-font: none; font-file-url: none; fill: rgb(224,216,163); fill-rule: nonzero; opacity: 1;" transform=" translate(-799.1225, -822.414)" d="M 777.329 816.001 L 792.623 816.001 L 792.623 800.62 L 805.529 800.62 L 805.529 816.001 L 820.916 816.001 L 820.916 828.905 L 805.529 828.905 L 805.529 844.208 L 792.623 844.208 L 792.623 828.905 L 777.329 828.905 L 777.329 816.001" stroke-linecap="round"/>
      </g>
      <g transform="matrix(1 0 0 1 65.493 82.761)" id="path20">
        <path style="stroke: none; stroke-width: 1; stroke-dasharray: none; stroke-linecap: butt; stroke-dashoffset: 0; stroke-linejoin: miter; stroke-miterlimit: 4; is-custom-font: none; font-file-url: none; fill: rgb(0,0,0); fill-rule: nonzero; opacity: 1;" transform=" translate(-930.0825, -822.3855)" d="M 981.876 822.386 C 981.876 850.99 958.689 874.178 930.076 874.178 C 901.476 874.178 878.289 850.99 878.289 822.386 C 878.289 793.783 901.476 770.593 930.076 770.593 C 958.689 770.593 981.876 793.783 981.876 822.386" stroke-linecap="round"/>
      </g>
      <g transform="matrix(1 0 0 1 65.493 82.762)" id="path22">
        <path style="stroke: none; stroke-width: 1; stroke-dasharray: none; stroke-linecap: butt; stroke-dashoffset: 0; stroke-linejoin: miter; stroke-miterlimit: 4; is-custom-font: none; font-file-url: none; fill: rgb(224,216,163); fill-rule: nonzero; opacity: 1;" transform=" translate(-930.0825, -822.3865)" d="M 908.276 825.76 L 951.889 825.76 L 951.889 838.658 L 908.276 838.658 L 908.276 825.76 Z M 908.276 806.115 L 951.889 806.115 L 951.889 819.092 L 908.276 819.092 L 908.276 806.115" stroke-linecap="round"/>
      </g>
    </g>
  </g>
  <g transform="matrix(1, 0, 0, 1, 531.817688, 77.185303)" style="" id="769488">
    <path font-family="Abel" font-size="115" font-style="normal" font-weight="normal" style="stroke: none; stroke-width: 1; stroke-dasharray: none; stroke-linecap: butt; stroke-dashoffset: 0; stroke-linejoin: miter; stroke-miterlimit: 4; is-custom-font: none; font-file-url: none; fill: rgb(0,100,0); fill-rule: nonzero; opacity: 1; white-space: pre;" d="M-375.41 36.13L-383.77 36.13L-405.62 1.76L-415.56 1.76L-415.56 36.13L-422.80 36.13L-422.80-44.40L-397.25-44.40Q-393.15-44.40-389.56-42.85Q-385.96-41.31-383.27-38.61Q-380.57-35.92-379.03-32.30Q-377.48-28.67-377.48-24.57L-377.48-24.57L-377.48-18.06Q-377.48-13.96-379.03-10.34Q-380.57-6.72-383.27-4.02Q-385.96-1.33-389.56 0.22Q-393.15 1.76-397.25 1.76L-397.25 1.76L-375.41 36.13ZM-384.73-18.06L-384.73-24.57Q-384.73-27.27-385.74-29.60Q-386.75-31.93-388.49-33.70Q-390.23-35.47-392.56-36.48Q-394.89-37.49-397.59-37.49L-397.59-37.49L-415.56-37.49L-415.56-5.15L-397.59-5.15Q-394.89-5.15-392.56-6.16Q-390.23-7.17-388.49-8.94Q-386.75-10.70-385.74-13.04Q-384.73-15.37-384.73-18.06L-384.73-18.06ZM-325.49 20.35L-325.49 20.35Q-325.49 23.83-326.81 26.92Q-328.13 30.01-330.43 32.31Q-332.73 34.61-335.82 35.93Q-338.91 37.25-342.39 37.25L-342.39 37.25L-346.99 37.25Q-350.47 37.25-353.56 35.93Q-356.65 34.61-358.95 32.31Q-361.26 30.01-362.58 26.92Q-363.90 23.83-363.90 20.35L-363.90 20.35L-363.90-5.60Q-363.90-9.08-362.58-12.16Q-361.26-15.25-358.95-17.56Q-356.65-19.86-353.56-21.18Q-350.47-22.50-346.99-22.50L-346.99-22.50L-342.39-22.50Q-338.91-22.50-335.82-21.18Q-332.73-19.86-330.43-17.56Q-328.13-15.25-326.81-12.16Q-325.49-9.08-325.49-5.60L-325.49-5.60L-325.49 7.94L-356.99 7.94L-356.99 20.74Q-356.99 22.82-356.20 24.64Q-355.42 26.47-354.07 27.82Q-352.72 29.16-350.90 29.95Q-349.07 30.74-346.99 30.74L-346.99 30.74L-342.39 30.74Q-340.31 30.74-338.49 29.95Q-336.66 29.16-335.31 27.82Q-333.97 26.47-333.18 24.64Q-332.39 22.82-332.39 20.74L-332.39 20.74L-332.39 16.92L-325.49 18.05L-325.49 20.35ZM-332.39 2.55L-332.39-5.99Q-332.39-8.07-333.18-9.89Q-333.97-11.72-335.31-13.06Q-336.66-14.41-338.49-15.20Q-340.31-15.98-342.39-15.98L-342.39-15.98L-346.99-15.98Q-349.07-15.98-350.90-15.20Q-352.72-14.41-354.07-13.06Q-355.42-11.72-356.20-9.89Q-356.99-8.07-356.99-5.99L-356.99-5.99L-356.99 2.55L-332.39 2.55ZM-273.27 20.35L-273.27 20.35Q-273.27 23.83-274.59 26.92Q-275.90 30.01-278.21 32.31Q-280.51 34.61-283.60 35.93Q-286.69 37.25-290.17 37.25L-290.17 37.25L-294.77 37.25Q-298.25 37.25-301.34 35.93Q-304.43 34.61-306.73 32.31Q-309.03 30.01-310.35 26.92Q-311.67 23.83-311.67 20.35L-311.67 20.35L-311.67-5.60Q-311.67-9.08-310.35-12.16Q-309.03-15.25-306.73-17.56Q-304.43-19.86-301.34-21.18Q-298.25-22.50-294.77-22.50L-294.77-22.50L-290.17-22.50Q-286.69-22.50-283.60-21.18Q-280.51-19.86-278.21-17.56Q-275.90-15.25-274.59-12.16Q-273.27-9.08-273.27-5.60L-273.27-5.60L-273.27-3.29L-280.17-2.17L-280.17-5.99Q-280.17-8.07-280.96-9.89Q-281.74-11.72-283.09-13.06Q-284.44-14.41-286.26-15.20Q-288.09-15.98-290.17-15.98L-290.17-15.98L-294.77-15.98Q-296.85-15.98-298.67-15.20Q-300.50-14.41-301.85-13.06Q-303.19-11.72-303.98-9.89Q-304.77-8.07-304.77-5.99L-304.77-5.99L-304.77 20.74Q-304.77 22.82-303.98 24.64Q-303.19 26.47-301.85 27.82Q-300.50 29.16-298.67 29.95Q-296.85 30.74-294.77 30.74L-294.77 30.74L-290.17 30.74Q-288.09 30.74-286.26 29.95Q-284.44 29.16-283.09 27.82Q-281.74 26.47-280.96 24.64Q-280.17 22.82-280.17 20.74L-280.17 20.74L-280.17 16.92L-273.27 18.05L-273.27 20.35ZM-221.04 20.35L-221.04 20.35Q-221.04 23.83-222.36 26.92Q-223.68 30.01-225.99 32.31Q-228.29 34.61-231.38 35.93Q-234.46 37.25-237.95 37.25L-237.95 37.25L-242.55 37.25Q-246.03 37.25-249.12 35.93Q-252.21 34.61-254.51 32.31Q-256.81 30.01-258.13 26.92Q-259.45 23.83-259.45 20.35L-259.45 20.35L-259.45-5.60Q-259.45-9.08-258.13-12.16Q-256.81-15.25-254.51-17.56Q-252.21-19.86-249.12-21.18Q-246.03-22.50-242.55-22.50L-242.55-22.50L-237.95-22.50Q-234.46-22.50-231.38-21.18Q-228.29-19.86-225.99-17.56Q-223.68-15.25-222.36-12.16Q-221.04-9.08-221.04-5.60L-221.04-5.60L-221.04 7.94L-252.55 7.94L-252.55 20.74Q-252.55 22.82-251.76 24.64Q-250.97 26.47-249.63 27.82Q-248.28 29.16-246.45 29.95Q-244.63 30.74-242.55 30.74L-242.55 30.74L-237.95 30.74Q-235.87 30.74-234.04 29.95Q-232.22 29.16-230.87 27.82Q-229.52 26.47-228.74 24.64Q-227.95 22.82-227.95 20.74L-227.95 20.74L-227.95 16.92L-221.04 18.05L-221.04 20.35ZM-227.95 2.55L-227.95-5.99Q-227.95-8.07-228.74-9.89Q-229.52-11.72-230.87-13.06Q-232.22-14.41-234.04-15.20Q-235.87-15.98-237.95-15.98L-237.95-15.98L-242.55-15.98Q-244.63-15.98-246.45-15.20Q-248.28-14.41-249.63-13.06Q-250.97-11.72-251.76-9.89Q-252.55-8.07-252.55-5.99L-252.55-5.99L-252.55 2.55L-227.95 2.55ZM-168.82 20.35L-168.82 20.35Q-168.82 23.83-170.14 26.92Q-171.46 30.01-173.76 32.31Q-176.07 34.61-179.15 35.93Q-182.24 37.25-185.72 37.25L-185.72 37.25L-187.46 37.25Q-191.34 37.25-194.65 35.68Q-197.97 34.10-200.32 31.30L-200.32 31.30L-200.32 59.15L-207.23 59.15L-207.23-21.37L-204.93-21.37L-201.17-15.53Q-198.81-18.73-195.24-20.62Q-191.68-22.50-187.46-22.50L-187.46-22.50L-185.72-22.50Q-182.24-22.50-179.15-21.18Q-176.07-19.86-173.76-17.56Q-171.46-15.25-170.14-12.16Q-168.82-9.08-168.82-5.60L-168.82-5.60L-168.82 20.35ZM-175.73 20.74L-175.73-5.99Q-175.73-8.07-176.51-9.89Q-177.30-11.72-178.65-13.06Q-180.00-14.41-181.82-15.20Q-183.65-15.98-185.72-15.98L-185.72-15.98L-190.33-15.98Q-192.41-15.98-194.23-15.20Q-196.06-14.41-197.40-13.06Q-198.75-11.72-199.54-9.89Q-200.32-8.07-200.32-5.99L-200.32-5.99L-200.32 20.74Q-200.32 22.82-199.54 24.64Q-198.75 26.47-197.40 27.82Q-196.06 29.16-194.23 29.95Q-192.41 30.74-190.33 30.74L-190.33 30.74L-185.72 30.74Q-183.65 30.74-181.82 29.95Q-180.00 29.16-178.65 27.82Q-177.30 26.47-176.51 24.64Q-175.73 22.82-175.73 20.74L-175.73 20.74ZM-127.77 36.13L-134.06 36.13Q-137.21 36.13-139.99 34.95Q-142.77 33.77-144.82 31.69Q-146.87 29.61-148.07 26.86Q-149.28 24.11-149.28 20.96L-149.28 20.96L-149.28-14.80L-159.61-14.80L-159.61-21.37L-149.28-21.37L-149.28-35.19L-142.37-36.31L-142.37-21.37L-127.77-21.37L-127.77-14.80L-142.37-14.80L-142.37 21.30Q-142.37 23.04-141.73 24.53Q-141.08 26.02-139.96 27.14Q-138.84 28.26-137.32 28.91Q-135.80 29.56-134.06 29.56L-134.06 29.56L-127.77 29.56L-127.77 36.13ZM-72.07 36.13L-81.06 36.13L-104.53 7.38L-81.06-21.37L-72.07-21.37L-96.10 7.38L-72.07 36.13ZM-105.88 36.13L-112.78 36.13L-112.78-44.40L-105.88-44.40L-105.88 36.13ZM-24.45 36.13L-26.76 36.13L-30.57 30.40Q-32.93 33.49-36.47 35.37Q-40.01 37.25-44.22 37.25L-44.22 37.25L-45.96 37.25Q-49.44 37.25-52.53 35.93Q-55.62 34.61-57.92 32.31Q-60.22 30.01-61.54 26.92Q-62.86 23.83-62.86 20.35L-62.86 20.35L-62.86 19.79Q-62.86 16.30-61.54 13.22Q-60.22 10.13-57.92 7.83Q-55.62 5.52-52.53 4.20Q-49.44 2.88-45.96 2.88L-45.96 2.88L-31.36 2.88L-31.36-5.99Q-31.36-8.07-32.15-9.89Q-32.93-11.72-34.28-13.06Q-35.63-14.41-37.45-15.20Q-39.28-15.98-41.36-15.98L-41.36-15.98L-45.40-15.98Q-47.48-15.98-49.30-15.20Q-51.13-14.41-52.47-13.06Q-53.82-11.72-54.61-9.89Q-55.39-8.07-55.39-5.99L-55.39-5.99L-55.39-3.91L-62.30-5.03L-62.30-5.60Q-62.30-9.08-60.98-12.16Q-59.66-15.25-57.36-17.56Q-55.06-19.86-51.97-21.18Q-48.88-22.50-45.40-22.50L-45.40-22.50L-41.36-22.50Q-37.87-22.50-34.79-21.18Q-31.70-19.86-29.40-17.56Q-27.09-15.25-25.77-12.16Q-24.45-9.08-24.45-5.60L-24.45-5.60L-24.45 36.13ZM-31.36 20.74L-31.36 8.27L-45.96 8.27Q-48.04 8.27-49.86 9.06Q-51.69 9.85-53.04 11.22Q-54.38 12.60-55.17 14.42Q-55.96 16.25-55.96 18.33L-55.96 18.33L-55.96 20.74Q-55.96 22.82-55.17 24.64Q-54.38 26.47-53.04 27.82Q-51.69 29.16-49.86 29.95Q-48.04 30.74-45.96 30.74L-45.96 30.74L-41.36 30.74Q-39.28 30.74-37.45 29.95Q-35.63 29.16-34.28 27.82Q-32.93 26.47-32.15 24.64Q-31.36 22.82-31.36 20.74L-31.36 20.74ZM-1.43 36.13L-8.34 36.13L-8.34-44.40L-1.43-44.40L-1.43 36.13ZM57.70 36.13L48.71 36.13L25.24 7.38L48.71-21.37L57.70-21.37L33.66 7.38L57.70 36.13ZM23.89 36.13L16.99 36.13L16.99-44.40L23.89-44.40L23.89 36.13ZM105.31-21.37L76.23 59.15L69.54 59.15L79.76 31.18L61.12-21.37L68.03-21.37L83.02 22.20L83.25 25.18L83.47 22.20L98.41-21.37L105.31-21.37ZM121.43 36.13L114.52 36.13L114.52-44.40L121.43-44.40L121.43 36.13ZM175.95 36.13L173.65 36.13L169.83 30.40Q167.47 33.49 163.94 35.37Q160.40 37.25 156.19 37.25L156.19 37.25L154.45 37.25Q150.97 37.25 147.88 35.93Q144.79 34.61 142.49 32.31Q140.18 30.01 138.86 26.92Q137.55 23.83 137.55 20.35L137.55 20.35L137.55 19.79Q137.55 16.30 138.86 13.22Q140.18 10.13 142.49 7.83Q144.79 5.52 147.88 4.20Q150.97 2.88 154.45 2.88L154.45 2.88L169.05 2.88L169.05-5.99Q169.05-8.07 168.26-9.89Q167.47-11.72 166.13-13.06Q164.78-14.41 162.95-15.20Q161.13-15.98 159.05-15.98L159.05-15.98L155.01-15.98Q152.93-15.98 151.11-15.20Q149.28-14.41 147.93-13.06Q146.59-11.72 145.80-9.89Q145.01-8.07 145.01-5.99L145.01-5.99L145.01-3.91L138.11-5.03L138.11-5.60Q138.11-9.08 139.43-12.16Q140.75-15.25 143.05-17.56Q145.35-19.86 148.44-21.18Q151.53-22.50 155.01-22.50L155.01-22.50L159.05-22.50Q162.53-22.50 165.62-21.18Q168.71-19.86 171.01-17.56Q173.31-15.25 174.63-12.16Q175.95-9.08 175.95-5.60L175.95-5.60L175.95 36.13ZM169.05 20.74L169.05 8.27L154.45 8.27Q152.37 8.27 150.54 9.06Q148.72 9.85 147.37 11.22Q146.02 12.60 145.24 14.42Q144.45 16.25 144.45 18.33L144.45 18.33L144.45 20.74Q144.45 22.82 145.24 24.64Q146.02 26.47 147.37 27.82Q148.72 29.16 150.54 29.95Q152.37 30.74 154.45 30.74L154.45 30.74L159.05 30.74Q161.13 30.74 162.95 29.95Q164.78 29.16 166.13 27.82Q167.47 26.47 168.26 24.64Q169.05 22.82 169.05 20.74L169.05 20.74ZM217.00 36.13L210.71 36.13Q207.57 36.13 204.79 34.95Q202.01 33.77 199.96 31.69Q197.91 29.61 196.70 26.86Q195.49 24.11 195.49 20.96L195.49 20.96L195.49-14.80L185.16-14.80L185.16-21.37L195.49-21.37L195.49-35.19L202.40-36.31L202.40-21.37L217.00-21.37L217.00-14.80L202.40-14.80L202.40 21.30Q202.40 23.04 203.05 24.53Q203.69 26.02 204.82 27.14Q205.94 28.26 207.45 28.91Q208.97 29.56 210.71 29.56L210.71 29.56L217.00 29.56L217.00 36.13ZM268.10 20.35L268.10 20.35Q268.10 23.83 266.78 26.92Q265.46 30.01 263.16 32.31Q260.86 34.61 257.77 35.93Q254.68 37.25 251.20 37.25L251.20 37.25L246.59 37.25Q243.11 37.25 240.02 35.93Q236.93 34.61 234.63 32.31Q232.33 30.01 231.01 26.92Q229.69 23.83 229.69 20.35L229.69 20.35L229.69-5.60Q229.69-9.08 231.01-12.16Q232.33-15.25 234.63-17.56Q236.93-19.86 240.02-21.18Q243.11-22.50 246.59-22.50L246.59-22.50L251.20-22.50Q254.68-22.50 257.77-21.18Q260.86-19.86 263.16-17.56Q265.46-15.25 266.78-12.16Q268.10-9.08 268.10-5.60L268.10-5.60L268.10 20.35ZM261.19 20.74L261.19-5.99Q261.19-8.07 260.41-9.89Q259.62-11.72 258.27-13.06Q256.93-14.41 255.10-15.20Q253.28-15.98 251.20-15.98L251.20-15.98L246.59-15.98Q244.52-15.98 242.69-15.20Q240.87-14.41 239.52-13.06Q238.17-11.72 237.38-9.89Q236.60-8.07 236.60-5.99L236.60-5.99L236.60 20.74Q236.60 22.82 237.38 24.64Q238.17 26.47 239.52 27.82Q240.87 29.16 242.69 29.95Q244.52 30.74 246.59 30.74L246.59 30.74L251.20 30.74Q253.28 30.74 255.10 29.95Q256.93 29.16 258.27 27.82Q259.62 26.47 260.41 24.64Q261.19 22.82 261.19 20.74L261.19 20.74ZM305.72-14.80L298.81-14.80Q296.74-14.80 294.91-14.02Q293.09-13.23 291.74-11.88Q290.39-10.54 289.61-8.71Q288.82-6.89 288.82-4.81L288.82-4.81L288.82 36.13L281.91 36.13L281.91-21.37L284.22-21.37L287.98-15.53Q290.34-18.73 293.90-20.62Q297.47-22.50 301.68-22.50L301.68-22.50L305.72-22.50L305.72-14.80ZM317.79 36.13L309.15 36.13L309.15 27.48L317.79 27.48L317.79 36.13ZM372.26 21.53L372.26 21.53Q372.26 25.01 370.86 27.90Q369.45 30.79 367.04 32.87Q364.63 34.95 361.45 36.10Q358.28 37.25 354.80 37.25L354.80 37.25L350.19 37.25Q346.71 37.25 343.54 35.93Q340.37 34.61 337.98 32.31Q335.59 30.01 334.16 26.92Q332.73 23.83 332.73 20.35L332.73 20.35L332.73 18.05L339.64 16.92L339.64 20.74Q339.64 22.82 340.51 24.64Q341.38 26.47 342.84 27.82Q344.30 29.16 346.21 29.95Q348.12 30.74 350.19 30.74L350.19 30.74L354.80 30.74Q356.88 30.74 358.79 30.12Q360.69 29.50 362.18 28.35Q363.67 27.20 364.54 25.57Q365.41 23.94 365.41 21.86L365.41 21.86Q365.41 18.78 364.06 16.81Q362.72 14.84 360.50 13.52Q358.28 12.21 355.44 11.33Q352.61 10.46 349.63 9.59Q346.66 8.72 343.82 7.60Q340.99 6.48 338.77 4.65Q336.55 2.83 335.20 0.08Q333.85-2.68 333.85-6.77L333.85-6.77Q333.85-10.26 335.20-13.15Q336.55-16.04 338.85-18.12Q341.15-20.19 344.21-21.35Q347.27-22.50 350.76-22.50L350.76-22.50L354.80-22.50Q358.28-22.50 361.37-21.18Q364.46-19.86 366.76-17.56Q369.06-15.25 370.38-12.16Q371.70-9.08 371.70-5.60L371.70-5.60L371.70-5.37L364.79-4.25L364.79-5.99Q364.79-8.07 364.01-9.89Q363.22-11.72 361.87-13.06Q360.53-14.41 358.70-15.20Q356.88-15.98 354.80-15.98L354.80-15.98L350.76-15.98Q348.68-15.98 346.85-15.37Q345.03-14.75 343.68-13.60Q342.33-12.45 341.55-10.82Q340.76-9.19 340.76-7.11L340.76-7.11Q340.76-4.14 342.11-2.25Q343.46-0.37 345.67 0.92Q347.89 2.21 350.73 3.08Q353.56 3.95 356.51 4.88Q359.46 5.80 362.29 6.98Q365.13 8.16 367.35 10.02Q369.57 11.87 370.91 14.65Q372.26 17.43 372.26 21.53ZM423.92 20.35L423.92 20.35Q423.92 23.83 422.60 26.92Q421.28 30.01 418.98 32.31Q416.68 34.61 413.59 35.93Q410.50 37.25 407.02 37.25L407.02 37.25L402.42 37.25Q398.93 37.25 395.85 35.93Q392.76 34.61 390.46 32.31Q388.15 30.01 386.83 26.92Q385.51 23.83 385.51 20.35L385.51 20.35L385.51-5.60Q385.51-9.08 386.83-12.16Q388.15-15.25 390.46-17.56Q392.76-19.86 395.85-21.18Q398.93-22.50 402.42-22.50L402.42-22.50L407.02-22.50Q410.50-22.50 413.59-21.18Q416.68-19.86 418.98-17.56Q421.28-15.25 422.60-12.16Q423.92-9.08 423.92-5.60L423.92-5.60L423.92 7.94L392.42 7.94L392.42 20.74Q392.42 22.82 393.21 24.64Q393.99 26.47 395.34 27.82Q396.69 29.16 398.51 29.95Q400.34 30.74 402.42 30.74L402.42 30.74L407.02 30.74Q409.10 30.74 410.92 29.95Q412.75 29.16 414.10 27.82Q415.44 26.47 416.23 24.64Q417.02 22.82 417.02 20.74L417.02 20.74L417.02 16.92L423.92 18.05L423.92 20.35ZM417.02 2.55L417.02-5.99Q417.02-8.07 416.23-9.89Q415.44-11.72 414.10-13.06Q412.75-14.41 410.92-15.20Q409.10-15.98 407.02-15.98L407.02-15.98L402.42-15.98Q400.34-15.98 398.51-15.20Q396.69-14.41 395.34-13.06Q393.99-11.72 393.21-9.89Q392.42-8.07 392.42-5.99L392.42-5.99L392.42 2.55L417.02 2.55Z"/>
  </g>
</svg>