<?xml version="1.0" encoding="utf-8"?>
<svg viewBox="0 0 958.741 1415.853" xmlns="http://www.w3.org/2000/svg">
  <path d="M 7150.46,0 H 40.1016 C 17.9531,0 0,18 0,40.1016 V 10578.8 c 0,22.1 17.9531,40.1 40.1016,40.1 H 7150.46 c 22.15,0 40.1,-18 40.1,-40.1 V 40.1016 C 7190.56,18 7172.61,0 7150.46,0" style="fill:#f6e04f;fill-opacity:1;fill-rule:nonzero;stroke:none" id="path24" transform="matrix(0.133333, 0, 0, -0.133333, 0, 1415.853271)"/>
  <path d="M 6424.27,7001.37 H 855.625 V 9794.13 H 6424.27 Z M 626.094,10044.3 V 6751.24 H 6653.8 V 10044.3 H 626.094" style="fill:#3eb93c;fill-opacity:1;fill-rule:nonzero;stroke:none" id="path26" transform="matrix(0.133333, 0, 0, -0.133333, 0, 1415.853271)"/>
  <path d="m 2404.28,5386.06 c 0,-458.75 -371.9,-830.64 -830.65,-830.64 -458.75,0 -830.642,371.89 -830.642,830.64 0,458.75 371.892,830.65 830.642,830.65 458.75,0 830.65,-371.9 830.65,-830.65" style="fill:#1d2e1a;fill-opacity:1;fill-rule:nonzero;stroke:none" id="path28" transform="matrix(0.133333, 0, 0, -0.133333, 0, 1415.853271)"/>
  <path d="m 4496.88,5386.06 c 0,-458.75 -371.89,-830.64 -830.64,-830.64 -458.75,0 -830.64,371.89 -830.64,830.64 0,458.75 371.89,830.65 830.64,830.65 458.75,0 830.64,-371.9 830.64,-830.65" style="fill:#1d2e1a;fill-opacity:1;fill-rule:nonzero;stroke:none" id="path30" transform="matrix(0.133333, 0, 0, -0.133333, 0, 1415.853271)"/>
  <path d="m 6600.63,5386.06 c 0,-458.75 -371.9,-830.64 -830.65,-830.64 -458.75,0 -830.64,371.89 -830.64,830.64 0,458.75 371.89,830.65 830.64,830.65 458.75,0 830.65,-371.9 830.65,-830.65" style="fill:#1d2e1a;fill-opacity:1;fill-rule:nonzero;stroke:none" id="path32" transform="matrix(0.133333, 0, 0, -0.133333, 0, 1415.853271)"/>
  <path d="m 2404.28,3190.24 c 0,-458.75 -371.9,-830.65 -830.65,-830.65 -458.75,0 -830.642,371.9 -830.642,830.65 0,458.76 371.892,830.64 830.642,830.64 458.75,0 830.65,-371.88 830.65,-830.64" style="fill:#1d2e1a;fill-opacity:1;fill-rule:nonzero;stroke:none" id="path34" transform="matrix(0.133333, 0, 0, -0.133333, 0, 1415.853271)"/>
  <path d="m 4496.88,3190.24 c 0,-458.75 -371.89,-830.65 -830.64,-830.65 -458.75,0 -830.64,371.9 -830.64,830.65 0,458.76 371.89,830.64 830.64,830.64 458.75,0 830.64,-371.88 830.64,-830.64" style="fill:#1d2e1a;fill-opacity:1;fill-rule:nonzero;stroke:none" id="path36" transform="matrix(0.133333, 0, 0, -0.133333, 0, 1415.853271)"/>
  <path d="m 6600.63,3190.24 c 0,-458.75 -371.9,-830.65 -830.65,-830.65 -458.75,0 -830.64,371.9 -830.64,830.65 0,458.76 371.89,830.64 830.64,830.64 458.75,0 830.65,-371.88 830.65,-830.64" style="fill:#1d2e1a;fill-opacity:1;fill-rule:nonzero;stroke:none" id="path38" transform="matrix(0.133333, 0, 0, -0.133333, 0, 1415.853271)"/>
  <path d="m 2404.28,1217.03 c 0,-458.749 -371.9,-830.628 -830.65,-830.628 -458.75,0 -830.642,371.879 -830.642,830.628 0,458.76 371.892,830.65 830.642,830.65 458.75,0 830.65,-371.89 830.65,-830.65" style="fill:#1d2e1a;fill-opacity:1;fill-rule:nonzero;stroke:none" id="path40" transform="matrix(0.133333, 0, 0, -0.133333, 0, 1415.853271)"/>
  <path d="m 4496.88,1217.03 c 0,-458.749 -371.89,-830.628 -830.64,-830.628 -458.75,0 -830.64,371.879 -830.64,830.628 0,458.76 371.89,830.65 830.64,830.65 458.75,0 830.64,-371.89 830.64,-830.65" style="fill:#1d2e1a;fill-opacity:1;fill-rule:nonzero;stroke:none" id="path42" transform="matrix(0.133333, 0, 0, -0.133333, 0, 1415.853271)"/>
  <path d="m 6600.63,1217.03 c 0,-458.749 -371.9,-830.628 -830.65,-830.628 -458.75,0 -830.64,371.879 -830.64,830.628 0,458.76 371.89,830.65 830.64,830.65 458.75,0 830.65,-371.89 830.65,-830.65" style="fill:#1d2e1a;fill-opacity:1;fill-rule:nonzero;stroke:none" id="path44" transform="matrix(0.133333, 0, 0, -0.133333, 0, 1415.853271)"/>
  <path d="m 1756.35,5863.5 v -954.87 h -263.86 v 625.69 c -42.68,-32.43 -83.99,-58.69 -123.92,-78.77 -39.94,-20.08 -89.98,-39.3 -150.18,-57.64 v 213.9 c 88.79,28.59 157.77,62.99 206.86,103.11 49.08,40.12 87.51,89.66 115.27,148.58 h 215.83" style="fill:#f6e04f;fill-opacity:1;fill-rule:nonzero;stroke:none" id="path46" transform="matrix(0.133333, 0, 0, -0.133333, 0, 1415.853271)"/>
  <path d="m 1446.51,3388.13 -246.57,44.19 c 20.5,78.54 59.88,138.75 118.16,180.6 58.28,41.86 140.8,62.77 247.53,62.77 122.55,0 211.11,-22.84 265.77,-68.53 54.67,-45.7 81.98,-103.11 81.98,-172.27 0,-40.58 -11.12,-77.27 -33.3,-110.16 -22.19,-32.89 -55.72,-61.71 -100.55,-86.46 36.27,-8.96 64.04,-19.44 83.25,-31.38 31.15,-19.21 55.4,-44.5 72.69,-75.89 17.29,-31.38 25.94,-68.85 25.94,-112.39 0,-54.67 -14.32,-107.05 -42.91,-157.23 -28.59,-50.18 -69.81,-88.79 -123.6,-115.92 -53.8,-27.12 -124.47,-40.66 -211.98,-40.66 -85.41,0 -152.75,10.02 -202.06,30.09 -49.31,20.09 -89.88,49.41 -121.68,88.07 -31.79,38.65 -56.26,87.19 -73.33,145.69 l 260.66,34.58 c 10.25,-52.51 26.16,-88.92 47.71,-109.18 21.55,-20.27 48.99,-30.42 82.29,-30.42 35,0 64.14,12.8 87.42,38.42 23.29,25.62 34.91,59.79 34.91,102.46 0,43.56 -11.21,77.27 -33.63,101.2 -22.41,23.92 -52.83,35.85 -91.26,35.85 -20.49,0 -48.67,-5.11 -84.53,-15.37 l 13.44,186.37 c 14.51,-2.15 25.85,-3.2 33.95,-3.2 34.17,0 62.67,10.89 85.49,32.66 22.83,21.77 34.27,47.62 34.27,77.49 0,28.6 -8.56,51.47 -25.62,68.53 -17.06,17.06 -40.58,25.61 -70.45,25.61 -30.74,0 -55.72,-9.28 -74.93,-27.86 -19.21,-18.56 -32.25,-51.14 -39.06,-97.66" style="fill:#f6e04f;fill-opacity:1;fill-rule:nonzero;stroke:none" id="path48" transform="matrix(0.133333, 0, 0, -0.133333, 0, 1415.853271)"/>
  <path d="m 1192.9,1686.47 h 761.46 v -176.12 c -66.19,-59.78 -121.45,-124.47 -165.87,-194.05 -53.79,-84.53 -96.29,-178.67 -127.44,-282.42 -24.75,-80.689 -41.4,-176.118 -49.95,-286.271 h -260.02 c 20.5,153.293 52.75,281.791 96.71,385.541 43.96,103.74 113.58,214.76 208.78,333.01 H 1192.9 v 220.31" style="fill:#f6e04f;fill-opacity:1;fill-rule:nonzero;stroke:none" id="path50" transform="matrix(0.133333, 0, 0, -0.133333, 0, 1415.853271)"/>
  <path d="m 3779.6,1377.14 c 0,50.83 -12.81,90.63 -38.43,119.44 -25.61,28.82 -56.77,43.24 -93.5,43.24 -34.59,0 -63.31,-13.04 -86.14,-39.08 -22.83,-26.02 -34.26,-65.09 -34.26,-117.19 0,-52.51 11.85,-92.64 35.54,-120.4 23.7,-27.77 53.25,-41.63 88.7,-41.63 36.74,0 67.25,13.45 91.58,40.35 24.34,26.89 36.51,65.32 36.51,115.27 z m -480.32,-418.839 259.37,32.668 c 6.82,-36.278 18.35,-61.899 34.58,-76.86 16.24,-14.949 36.09,-22.406 59.56,-22.406 41.86,0 74.52,21.129 97.99,63.399 17.06,31.148 29.87,97.118 38.42,197.888 -31.15,-32.02 -63.17,-55.49 -96.06,-70.44 -32.89,-14.96 -70.86,-22.42 -114,-22.42 -84.12,0 -155.07,29.87 -212.94,89.67 -57.87,59.78 -86.77,135.35 -86.77,226.71 0,62.34 14.72,119.12 44.18,170.35 29.46,51.23 70.04,89.98 121.69,116.24 51.64,26.25 116.55,39.38 194.68,39.38 93.92,0 169.31,-16.1 226.07,-48.36 56.78,-32.24 102.15,-83.47 136.1,-153.7 33.94,-70.21 50.91,-162.99 50.91,-278.26 0,-169.48 -35.63,-293.629 -106.95,-372.398 -71.32,-78.782 -170.13,-118.172 -296.52,-118.172 -74.7,0 -133.62,8.652 -176.75,25.941 -43.14,17.301 -79.01,42.59 -107.6,75.891 -28.59,33.301 -50.59,74.93 -65.96,124.879" style="fill:#f6e04f;fill-opacity:1;fill-rule:nonzero;stroke:none" id="path52" transform="matrix(0.133333, 0, 0, -0.133333, 0, 1415.853271)"/>
  <path d="m 5420.31,1162.92 h 699.35 V 956.07 h -699.35 z m 0,315.09 h 699.35 v -208.13 h -699.35 v 208.13" style="fill:#f6e04f;fill-opacity:1;fill-rule:nonzero;stroke:none" id="path54" transform="matrix(0.133333, 0, 0, -0.133333, 0, 1415.853271)"/>
  <path d="m 3392.46,3667.68 h 619.29 v -208.14 h -419.48 l -22.41,-140.9 c 29.04,13.69 57.73,23.93 86.13,30.75 28.41,6.81 56.45,10.24 84.22,10.24 93.91,0 170.13,-28.41 228.63,-85.17 58.51,-56.77 87.74,-128.32 87.74,-214.55 0,-60.61 -15.05,-118.88 -45.15,-174.83 -30.1,-55.95 -72.78,-98.63 -128.08,-128.09 -55.31,-29.46 -126.08,-44.18 -212.31,-44.18 -61.89,0 -114.95,5.84 -159.14,17.6 -44.19,11.76 -81.75,29.23 -112.72,52.52 -30.96,23.28 -56.03,49.63 -75.25,79.09 -19.21,29.47 -35.22,66.2 -48.03,110.16 l 263.86,28.82 c 6.4,-42.28 21.36,-74.39 44.83,-96.39 23.47,-22 51.46,-32.98 83.89,-32.98 36.28,0 66.29,13.77 89.99,41.3 23.69,27.54 35.54,68.63 35.54,123.29 0,55.94 -11.94,96.93 -35.87,122.96 -23.92,26.03 -55.71,39.06 -95.42,39.06 -25.21,0 -49.54,-6.17 -73.01,-18.57 -17.52,-8.96 -36.73,-25.2 -57.64,-48.67 l -222.22,32.02 82.61,504.66" style="fill:#f6e04f;fill-opacity:1;fill-rule:nonzero;stroke:none" id="path56" transform="matrix(0.133333, 0, 0, -0.133333, 0, 1415.853271)"/>
  <path d="m 5580.42,3291.11 h 379.13 v -201.73 h -379.13 v 201.73" style="fill:#f6e04f;fill-opacity:1;fill-rule:nonzero;stroke:none" id="path58" transform="matrix(0.133333, 0, 0, -0.133333, 0, 1415.853271)"/>
  <path d="m 4057.54,4908.63 h -782.6 c 8.97,77.26 36.19,149.95 81.66,218.06 45.46,68.12 130.73,148.49 255.84,241.12 76.45,56.77 125.3,99.91 146.66,129.37 21.37,29.45 32.03,57.41 32.03,83.89 0,28.59 -10.57,53.06 -31.71,73.33 -21.13,20.27 -47.71,30.42 -79.73,30.42 -33.3,0 -60.52,-10.48 -81.65,-31.38 -21.14,-20.91 -35.32,-57.87 -42.59,-110.8 l -261.3,21.14 c 10.25,73.42 29.05,130.74 56.36,171.96 27.31,41.21 65.88,72.77 115.6,94.78 49.72,22 118.57,32.98 206.53,32.98 91.82,0 163.22,-10.47 214.23,-31.38 51,-20.91 91.17,-53.06 120.4,-96.38 29.23,-43.33 43.87,-91.91 43.87,-145.7 0,-57.23 -16.75,-111.85 -50.28,-163.95 -33.53,-52.1 -94.46,-109.29 -182.84,-171.63 -52.51,-36.28 -87.65,-61.71 -105.35,-76.22 -17.7,-14.5 -38.52,-33.53 -62.44,-57 h 407.31 v -212.61" style="fill:#f6e04f;fill-opacity:1;fill-rule:nonzero;stroke:none" id="path60" transform="matrix(0.133333, 0, 0, -0.133333, 0, 1415.853271)"/>
  <path d="m 5420.63,5488.85 h 245.28 v 246.56 h 206.86 v -246.56 h 246.56 v -206.86 h -246.56 v -245.28 h -206.86 v 245.28 h -245.28 v 206.86" style="fill:#f6e04f;fill-opacity:1;fill-rule:nonzero;stroke:none" id="path62" transform="matrix(0.133333, 0, 0, -0.133333, 0, 1415.853271)"/>
  <path d="m 4309.84,8225.23 c 153.43,114.47 252.77,297.4 252.77,503.54 0,346.75 -281.1,627.85 -627.85,627.85 -122.96,0 -853.41,0 -853.41,0 V 7397.66 h 579.67 v 1435.5 h 176.66 c 80.3,0 145.38,-65.09 145.38,-145.38 0,-80.29 -65.08,-145.38 -145.38,-145.38 -45.89,0 -86.88,0 -86.88,0 v -512.36 l 286.92,-632.38 h 614.8 l -342.68,827.57" style="fill:#3eb93c;fill-opacity:1;fill-rule:nonzero;stroke:none" id="path64" transform="matrix(0.133333, 0, 0, -0.133333, 0, 1415.853271)"/>
  <path d="m 5435.18,7987.1 c 360.19,0 652.19,291.99 652.19,652.18 0,90.47 0,202.7 0,202.7 h -542.98 c 0,0 0,-275.21 0,-394.26 0,-60.32 -48.89,-109.2 -109.21,-109.2 -60.3,0 -109.19,48.88 -109.19,109.2 0,119.05 0,394.26 0,394.26 H 4783 c 0,0 0,-112.23 0,-202.7 0,-360.19 291.99,-652.18 652.18,-652.18" style="fill:#3eb93c;fill-opacity:1;fill-rule:nonzero;stroke:none" id="path66" transform="matrix(0.133333, 0, 0, -0.133333, 0, 1415.853271)"/>
  <path d="m 5435.18,8338.52 c -360.19,0 -652.18,-291.99 -652.18,-652.18 0,-90.47 0,-288.68 0,-288.68 h 542.99 c 0,0 0,361.18 0,480.24 0,60.31 48.89,109.2 109.19,109.2 60.32,0 109.21,-48.89 109.21,-109.2 0,-119.06 0,-480.24 0,-480.24 h 542.98 c 0,0 0,198.21 0,288.68 0,360.19 -292,652.18 -652.19,652.18" style="fill:#3eb93c;fill-opacity:1;fill-rule:nonzero;stroke:none" id="path68" transform="matrix(0.133333, 0, 0, -0.133333, 0, 1415.853271)"/>
</svg>