<?xml version="1.0" encoding="utf-8"?>
<!-- Generator: Adobe Illustrator 27.4.1, SVG Export Plug-In . SVG Version: 6.00 Build 0)  -->
<svg version="1.1" id="Layer_1" xmlns="http://www.w3.org/2000/svg" xmlns:xlink="http://www.w3.org/1999/xlink" x="0px" y="0px"
	 viewBox="0 0 766.6 116.2" style="enable-background:new 0 0 766.6 116.2;" xml:space="preserve">
<style type="text/css">
	.st0{fill:#FFFFDB;}
	.st1{fill:#006400;}
	.st2{fill:#E0D8A3;}
</style>
<g id="_x39_05129" transform="matrix(0.2504, 0, 0, 0.2504, 49.631401, 72.491898)">
	<g vector-effect="non-scaling-stroke">
		<g id="path12" transform="matrix(0.1333 0 0 -0.1333 -0.0406 -0.0424)">
			<path class="st0" d="M820.4-482.9h-2307v2654.4h2307V-482.9"/>
		</g>
		<g id="path14" transform="matrix(1 0 0 1 -0.0005 -82.624)">
			<path class="st1" d="M74.4-52.6h-237.6v-119.8H74.4V-52.6z M-173.1-183.2v141.3H84.3v-141.3H-173.1"/>
		</g>
		<g id="path16" transform="matrix(1 0 0 1 -65.4665 82.7885)">
			<path d="M7.4-112.5c0,28.6-23.2,51.8-51.8,51.8c-28.6,0-51.8-23.2-51.8-51.8c0-28.6,23.2-51.8,51.8-51.8
				C-15.8-164.4,7.4-141.2,7.4-112.5"/>
		</g>
		<g id="path18" transform="matrix(1 0 0 1 -65.467 82.7895)">
			<path class="st2" d="M-66.2-119h15.3v-15.4H-38v15.4h15.4v12.9H-38v15.3h-12.9v-15.3h-15.3V-119"/>
		</g>
		<g id="path20" transform="matrix(1 0 0 1 65.493 82.761)">
			<path d="M7.4-112.5c0,28.6-23.2,51.8-51.8,51.8c-28.6,0-51.8-23.2-51.8-51.8c0-28.6,23.2-51.8,51.8-51.8
				C-15.8-164.3,7.4-141.1,7.4-112.5"/>
		</g>
		<g id="path22" transform="matrix(1 0 0 1 65.493 82.762)">
			<path class="st2" d="M-66.2-109.2h43.6v12.9h-43.6V-109.2z M-66.2-128.8h43.6v13h-43.6V-128.8"/>
		</g>
	</g>
</g>
<g>
	<path class="st1" d="M90.8,87.6V9.8h11l24.9,39.4c5.8,9.1,10.3,17.3,14,25.3l0.2-0.1c-0.9-10.4-1.2-19.9-1.2-32V9.8h9.5v77.8H139
		l-24.7-39.5c-5.4-8.7-10.6-17.5-14.5-26l-0.3,0.1c0.6,9.8,0.8,19.2,0.8,32.1v33.2H90.8z"/>
	<path class="st1" d="M171.1,31.7l12.2,33c1.3,3.7,2.7,8.1,3.6,11.4h0.2c1-3.3,2.2-7.6,3.6-11.7l11.1-32.8h10.7l-15.2,39.8
		c-7.3,19.2-12.2,29-19.2,35c-5,4.4-9.9,6.1-12.5,6.6l-2.5-8.5c2.5-0.8,5.9-2.4,8.9-5c2.8-2.2,6.2-6.1,8.5-11.3
		c0.5-1,0.8-1.8,0.8-2.4s-0.2-1.4-0.7-2.7L160,31.7H171.1z"/>
	<path class="st1" d="M234,15.7v16h14.5v7.7H234v30.1c0,6.9,2,10.9,7.6,10.9c2.7,0,4.6-0.3,5.9-0.7l0.5,7.6c-2,0.8-5.1,1.4-9,1.4
		c-4.7,0-8.5-1.5-11-4.3c-2.9-3-3.9-8-3.9-14.5V39.5h-8.7v-7.7h8.7V18.4L234,15.7z"/>
	<path class="st1" d="M272.2,15.7v16h14.5v7.7h-14.5v30.1c0,6.9,2,10.9,7.6,10.9c2.7,0,4.6-0.3,5.9-0.7l0.5,7.6
		c-2,0.8-5.1,1.4-9,1.4c-4.7,0-8.5-1.5-11-4.3c-2.9-3-3.9-8-3.9-14.5V39.5h-8.7v-7.7h8.7V18.4L272.2,15.7z"/>
	<path class="st1" d="M298.5,10.9c5.1-1,12.4-1.6,19.3-1.6c10.7,0,17.7,2,22.5,6.3c3.9,3.5,6.1,8.8,6.1,14.8
		c0,10.3-6.5,17.1-14.7,19.9v0.3c6,2.1,9.6,7.6,11.4,15.7c2.5,10.9,4.4,18.4,6,21.4h-10.4c-1.3-2.2-3-8.9-5.2-18.6
		c-2.3-10.7-6.5-14.8-15.6-15.1h-9.5v33.7h-10V10.9z M308.6,46.3h10.3c10.7,0,17.5-5.9,17.5-14.8c0-10-7.3-14.4-17.9-14.5
		c-4.8,0-8.3,0.5-9.9,0.9V46.3z"/>
	<path class="st1" d="M366.4,61.5c0.2,13.7,9,19.4,19.2,19.4c7.3,0,11.7-1.3,15.5-2.9l1.7,7.3c-3.6,1.6-9.7,3.5-18.6,3.5
		c-17.2,0-27.5-11.3-27.5-28.2c0-16.9,9.9-30.1,26.2-30.1c18.2,0,23.1,16,23.1,26.3c0,2.1-0.2,3.7-0.3,4.7H366.4z M396.2,54.3
		c0.1-6.5-2.7-16.5-14.1-16.5c-10.3,0-14.8,9.5-15.6,16.5H396.2z"/>
	<path class="st1" d="M458.4,85.5c-2.7,1.4-8.5,3.2-16,3.2c-16.9,0-27.8-11.4-27.8-28.5c0-17.2,11.8-29.7,30-29.7
		c6,0,11.3,1.5,14.1,2.9l-2.3,7.8c-2.4-1.4-6.2-2.7-11.8-2.7c-12.8,0-19.7,9.5-19.7,21.1c0,12.9,8.3,20.9,19.4,20.9
		c5.8,0,9.6-1.5,12.5-2.8L458.4,85.5z"/>
	<path class="st1" d="M475.3,61.5c0.2,13.7,9,19.4,19.2,19.4c7.3,0,11.7-1.3,15.5-2.9l1.7,7.3c-3.6,1.6-9.7,3.5-18.6,3.5
		c-17.2,0-27.5-11.3-27.5-28.2c0-16.9,9.9-30.1,26.2-30.1c18.2,0,23.1,16,23.1,26.3c0,2.1-0.2,3.7-0.3,4.7H475.3z M505.1,54.3
		c0.1-6.5-2.7-16.5-14.1-16.5c-10.3,0-14.8,9.5-15.6,16.5H505.1z"/>
	<path class="st1" d="M527.4,50c0-7.2-0.2-12.9-0.5-18.2h9.1l0.5,9.6h0.2c4.2-6.8,10.7-10.9,19.9-10.9c13.5,0,23.7,11.4,23.7,28.4
		c0,20.1-12.2,30-25.4,30c-7.4,0-13.9-3.2-17.2-8.8h-0.2v30.4h-10V50z M537.5,64.9c0,1.5,0.2,2.9,0.5,4.2c1.8,7,8,11.9,15.2,11.9
		c10.7,0,17-8.8,17-21.6c0-11.2-5.9-20.8-16.6-20.8c-6.9,0-13.4,5-15.4,12.6c-0.3,1.3-0.7,2.8-0.7,4.2V64.9z"/>
	<path class="st1" d="M605.4,15.7v16h14.5v7.7h-14.5v30.1c0,6.9,2,10.9,7.6,10.9c2.7,0,4.6-0.3,5.9-0.7l0.5,7.6
		c-2,0.8-5.1,1.4-9,1.4c-4.7,0-8.5-1.5-11-4.3c-2.9-3-3.9-8-3.9-14.5V39.5h-8.7v-7.7h8.7V18.4L605.4,15.7z"/>
	<path class="st1" d="M628.6,81.6c0-4.3,2.9-7.3,6.9-7.3s6.8,3,6.8,7.3c0,4.2-2.7,7.3-6.9,7.3C631.3,88.9,628.6,85.8,628.6,81.6z"/>
	<path class="st1" d="M653.5,77.2c3,2,8.3,4,13.4,4c7.4,0,10.9-3.7,10.9-8.3c0-4.8-2.9-7.5-10.4-10.3c-10-3.6-14.8-9.1-14.8-15.8
		c0-9,7.3-16.4,19.3-16.4c5.7,0,10.6,1.6,13.7,3.5l-2.5,7.4c-2.2-1.4-6.2-3.2-11.4-3.2c-6,0-9.3,3.5-9.3,7.6c0,4.6,3.3,6.7,10.6,9.5
		c9.7,3.7,14.7,8.5,14.7,16.9c0,9.8-7.6,16.7-20.9,16.7c-6.1,0-11.8-1.5-15.7-3.8L653.5,77.2z"/>
	<path class="st1" d="M706.3,61.5c0.2,13.7,9,19.4,19.2,19.4c7.3,0,11.7-1.3,15.5-2.9l1.7,7.3c-3.6,1.6-9.7,3.5-18.6,3.5
		c-17.2,0-27.5-11.3-27.5-28.2c0-16.9,9.9-30.1,26.2-30.1c18.2,0,23.1,16,23.1,26.3c0,2.1-0.2,3.7-0.3,4.7H706.3z M736,54.3
		c0.1-6.5-2.7-16.5-14.1-16.5c-10.3,0-14.8,9.5-15.6,16.5H736z"/>
</g>
</svg>
