<?xml version="1.0" encoding="utf-8"?>
<!-- Generator: Adobe Illustrator 27.7.0, SVG Export Plug-In . SVG Version: 6.00 Build 0)  -->
<svg version="1.1" id="Layer_1" xmlns="http://www.w3.org/2000/svg" xmlns:xlink="http://www.w3.org/1999/xlink" x="0px" y="0px"
	 viewBox="0 0 1920 320" style="enable-background:new 0 0 1920 320;" xml:space="preserve">
<style type="text/css">
	.st0{fill:#ECF4ED;}
</style>
<path class="st0" d="M2866.6,315.4V91.9l-29.7,4.7c-29.9,5.2-89.8,14.3-149.6,38.9c-59.9,24.6-119.7,62.8-179.6,63.1
	c-59.9-0.3-119.7-38.5-179.6-67.9c-59.9-28.9-119.7-48.9-179.6-43.7c-59.9,4.8-119.7,33.9-179.6,48.5c-59.9,14.6-119.7,14.6-179.6,0
	c-59.9-14.5-119.7-43.6-179.6-58.2c-6.8-1.7-13.7-3.2-20.6-4.5c-36.9-7-74.4-9.6-111.8-10c-18.1-0.2-36.2-0.7-54.3,1.3
	c-20.9,2.3-41.5,6.9-61.9,12c-35.5,8.8-70,20.9-103.4,35.9c-60,27-120,69-180,69.3c-60-0.3-120-42.3-180-74.6
	c-60-31.7-120-53.7-180-48c-60,5.3-120,37.3-180,53.3s-120,16-180,0s-120-48-180-64s-120-16-150-16h-30v283.4H2866.6z"/>
</svg>
