<?xml version="1.0" encoding="UTF-8"?>
<svg id="Layer_2" data-name="Layer 2" xmlns="http://www.w3.org/2000/svg" viewBox="0 0 401 401">
  <defs>
    <style>
      .cls-1 {
        stroke: #231f20;
        stroke-width: 7px;
      }

      .cls-1, .cls-2 {
        fill: none;
        stroke-linecap: round;
      }

      .cls-1, .cls-2, .cls-3 {
        stroke-miterlimit: 10;
      }

      .cls-2 {
        stroke: #000;
        stroke-width: 4.44px;
      }

      .cls-3 {
        fill: #fff;
        stroke: #fff;
      }

      .cls-4 {
        fill: #fca17a;
      }

      .cls-5 {
        fill: #fcbfab;
      }
    </style>
  </defs>
  <g id="Layer_2-2" data-name="Layer 2">
    <g>
      <rect class="cls-3" x=".5" y=".5" width="400" height="400"/>
      <g>
        <path class="cls-5" d="m56.67,294.38v50.24s140.15-19.83,154.96-23.27,43.1-6.88,61.35-16.92c18.25-10.05,71.4-132.22,71.4-132.22V56.38s-30.15.79-49.71,16.4c-19.57,15.6-29.88,52.09-31.73,61.35s-28.3,100.75-32.79,102.07c0,0-35.93,8.81-63.99,18.51-10.4,3.59-39.67,19.05-63.47,27.5-19.55,6.94-46.01,12.16-46.01,12.16Z"/>
        <path class="cls-4" d="m333.75,140.25c-3.94,1.43-7.13,4.39-8.89,8.19l-4.86,10.48s-53.15,122.17-71.4,132.22c-18.25,10.05-46.54,13.49-61.35,16.92-10.91,2.53-89.81,13.96-130.63,19.8v16.69s140.15-19.83,154.96-23.27c14.81-3.44,43.1-6.88,61.35-16.92,18.25-10.05,71.4-132.22,71.4-132.22l.04-35.48s-2.27.55-10.62,3.58Z"/>
        <path class="cls-1" d="m56.67,344.62s140.15-19.83,154.96-23.27,43.1-6.88,61.35-16.92c16.54-9.11,57.74-104.1,68.27-130.48.34-.85,1.47-1.72,3.13-1.74"/>
        <path class="cls-1" d="m344.38,56.38s-30.15.79-49.71,16.4c-19.57,15.6-29.88,52.09-31.73,61.35s-28.3,100.75-32.79,102.07c0,0-35.93,8.81-63.99,18.51-10.4,3.59-39.67,19.05-63.47,27.5-19.55,6.94-46.01,12.16-46.01,12.16"/>
        <path class="cls-2" d="m232.78,289.62s17.98-.79,27.5-23.8"/>
      </g>
    </g>
  </g>
</svg>