<?xml version="1.0" encoding="UTF-8"?>
<svg id="Layer_2" data-name="Layer 2" xmlns="http://www.w3.org/2000/svg" viewBox="0 0 401 401">
  <defs>
    <style>
      .cls-1 {
        stroke: #fca17a;
        stroke-width: 11px;
      }

      .cls-1, .cls-2, .cls-3 {
        fill: none;
        stroke-linecap: round;
      }

      .cls-1, .cls-2, .cls-3, .cls-4 {
        stroke-miterlimit: 10;
      }

      .cls-2 {
        stroke-width: 7.23px;
      }

      .cls-2, .cls-3 {
        stroke: #231f20;
      }

      .cls-3 {
        stroke-width: 7px;
      }

      .cls-4 {
        fill: #fff;
        stroke: #fff;
      }

      .cls-5 {
        fill: #fca17a;
      }

      .cls-6 {
        fill: #fcbfab;
      }
    </style>
  </defs>
  <g id="Layer_2-2" data-name="Layer 2">
    <g>
      <path class="cls-4" d="m.5.5v400h400V.5H.5Z"/>
      <g>
        <path class="cls-6" d="m197.23,276.33l-1.7,53.72-100.91-1.67c-3.95-20.6-4.01-62.85-3.79-82.79,1.52,25.93,17.91,44.85,55.5,44.85,19.5,0,37.31-5.33,50.9-14.11Z"/>
        <path class="cls-6" d="m308.68,269.3l-4.17,59.07-94.8,1.94c-3.95-20.6-.77-34.55-.55-54.49,25.44,11.4,14.67,16.55,52.26,16.55,19.5,0,33.67-14.3,47.26-23.08Z"/>
        <path class="cls-6" d="m96.85,71.98s4.63,74.32,3.34,87.47-6.67,57.82-6.67,57.82c0,0-5.37,25.02-2.22,35.58s13.71,27.24,19.64,29.28,29.1,10.19,42.25,7.78,49.11-12.79,48.93-13.71,1.48-4.45,1.48-4.45l24.09,13.71s34.84,8.53,45.96,4.08c11.12-4.45,28.36-12.6,32.99-22.98,4.63-10.38,4.82-30.95,2.97-37.81s-8.9-65.98-8.9-65.98l-2.59-63.38-.37-28.17-200.9.74Z"/>
        <g>
          <path class="cls-5" d="m289.55,275.32c-1.33.39-2.68.71-4.04.95-6.49,1.14-13.15.24-19.66-.76-15.96-2.45-32.01-5.52-47.04-11.59-3.82-1.54-7.6-3.25-11.21-5.24-2.89-1.6-3.1-1.99-5.7-.19-3.5,2.42-6.62,5.41-10.16,7.75-3.82,2.53-7.8,4.77-12.03,6.53-10.47,4.35-21.03,3.81-31.97,1.64-7.03-1.4-14.06-3.2-20.36-6.62-13.16-7.15-20.9-23.25-21.11-37.96-.15-10.07,1.86-20.82,3.55-30.69,1.9-11.13,3.37-22.34,4.41-33.59,2.07-22.5,2.4-45.15.99-67.7-.54-8.65-1.09-17.3-1.58-25.96,0,0-16.77.06-16.77.06,0,0,4.63,74.32,3.34,87.47-1.3,13.16-6.67,57.82-6.67,57.82,0,0-5.37,25.02-2.22,35.58s13.71,27.24,19.64,29.28c5.93,2.04,29.1,10.19,42.25,7.78,13.16-2.41,49.11-12.79,48.93-13.71-.19-.93,1.48-4.45,1.48-4.45l24.09,13.71s34.84,8.53,45.96,4.08c10.74-4.3,27.18-12.05,32.46-21.92-5.19,2.98-10.74,5.98-16.57,7.69Z"/>
          <path class="cls-5" d="m97.22,328.1l35.89.96-3.27-27.65s40.22,9.08,65.61-5.93l1.48-19.27-41.14,14.08-63.38-28.17-.37,39.66,5.19,26.32Z"/>
          <path class="cls-5" d="m210.95,330.29l-1.67-53.84,29.65,13.71,41.88-1.11,25.05-21.18,4.23,28.59s-50.59,20.94-64.12,12.6l.49,20.47-35.51.75Z"/>
          <line class="cls-1" x1="206.93" y1="179.93" x2="206.93" y2="87.64"/>
          <path class="cls-6" d="m91.01,234.7s-.11,4.18-.18,10.89c-.21-3.51-.14-7.15.18-10.89Z"/>
          <path class="cls-3" d="m197.23,276.33c2.34-1.52,4.55-3.13,6.63-4.84,13.49,11.79,33.16,19.22,55.05,19.22,40.69,0,54.74-25.18,50.88-56.57-4.17-33.91-12.51-80.06-11.68-162.62"/>
          <path class="cls-3" d="m90.83,245.59c-.21-3.45-.14-7.03.17-10.7.01-.12.01-.19.01-.19,2.78-32.25,14.44-101.68,6.39-164.02"/>
          <line class="cls-3" x1="203.6" y1="271.95" x2="202.48" y2="216.9"/>
          <path class="cls-3" d="m94.62,328.38c-3.95-20.6-4.01-62.85-3.79-82.79,1.52,25.93,17.91,44.85,55.5,44.85,19.5,0,37.31-5.33,50.9-14.11l-1.7,53.72"/>
          <line class="cls-2" x1="210.27" y1="329.21" x2="208.98" y2="275.54"/>
          <path class="cls-3" d="m310.07,239.7s1.67,54.49-6.39,88.4"/>
          <line class="cls-3" x1="201.93" y1="176.87" x2="201.93" y2="84.58"/>
          <path class="cls-3" d="m94.62,328.38c-3.95-20.6-4.01-62.85-3.79-82.79,1.52,25.93,17.91,44.85,55.5,44.85,19.5,0,37.31-5.33,50.9-14.11l-1.7,53.72"/>
        </g>
      </g>
    </g>
  </g>
</svg>