<?xml version="1.0" encoding="UTF-8"?>
<svg id="Layer_2" data-name="Layer 2" xmlns="http://www.w3.org/2000/svg" viewBox="0 0 400 400">
  <defs>
    <style>
      .cls-1 {
        fill: #fff;
      }

      .cls-2 {
        stroke-width: 7px;
      }

      .cls-2, .cls-3 {
        stroke: #231f20;
      }

      .cls-2, .cls-3, .cls-4 {
        fill: none;
        stroke-linecap: round;
        stroke-miterlimit: 10;
      }

      .cls-3 {
        stroke-width: 5px;
      }

      .cls-4 {
        stroke: #fca17a;
        stroke-width: 9px;
      }

      .cls-5 {
        fill: #fca17a;
      }

      .cls-6 {
        fill: #fcbfab;
      }

      .cls-7 {
        fill: #231f20;
      }
    </style>
  </defs>
  <g id="Layer_2-2" data-name="Layer 2">
    <g>
      <rect class="cls-1" width="400" height="400"/>
      <g>
        <path class="cls-6" d="m327.79,177.51s-5.69-37.64-22.46-65.7c-1.85-3.1-4.42-5.7-7.51-7.56-11.74-7.03-44.1-26.1-61.33-33.18-3.31-1.36-5.51-4.54-5.62-8.12l-.38-12.76h-58.38v12.86c0,3.34-1.93,6.37-4.96,7.77-13.89,6.45-52.69,24.89-60.65,33.3-26.08,27.57-30.02,78.95-30.02,78.95l34.47,51.15s14.64-27.71,17.24-27.24c1.25.51-13.34,50.97-9.45,77.84,2.36,16.27,9.73,33.36,23.91,42.81s53.75,14.08,77.28,11.68c19.9-2.04,41.7-7.97,56.71-27.24,14.3-18.36,13.62-43.64,8.9-70.05-3.41-19.05-6.53-30-8-34.62-.07-.21.23-.33.33-.13,3.36,6.78,12.72,25.25,16.56,28.64l33.36-58.38Z"/>
        <path class="cls-5" d="m126.53,227.55s29.19-3.34,36.69-12.79,7.23-22.24,7.23-22.24l-22.8,12.23-19.46,2.22-1.67,20.57Z"/>
        <path class="cls-5" d="m236.61,194.19s14.18,24.46,25.02,24.46,16.68-2.22,16.68-2.22l-.77-9.04-14.79-2.07-26.13-11.12Z"/>
        <polygon class="cls-5" points="289.99 192.52 306.67 214.76 294.43 235.89 277.54 207.38 289.99 192.52"/>
        <path class="cls-5" d="m249.4,198.64s40.03,6.67,39.47-18.35,1.11,12.23,1.11,12.23l-5.56,10.01-15.01,2.78-20.02-6.67Z"/>
        <path class="cls-5" d="m159.33,198.08s-36.14,1.95-43.92-15.57,3.89,16.68,3.89,16.68l12.79,5.56,27.24-6.67Z"/>
        <polygon class="cls-5" points="98.17 217.54 116.52 193.63 128.19 206.98 110.96 234.22 98.17 217.54"/>
        <path class="cls-5" d="m120.97,258.68s8.62,50.87,41.7,57.82,27.8,22.24,27.8,22.24c0,0-33.64-2.22-40.03-6.67s-26.13-26.69-26.13-26.69c0,0-9.73-30.86-3.34-46.7Z"/>
        <line class="cls-4" x1="205.48" y1="189.19" x2="205.75" y2="156.66"/>
        <path class="cls-2" d="m327.79,177.51s-5.69-37.64-22.46-65.7c-1.85-3.1-4.42-5.7-7.51-7.56-11.74-7.03-44.1-26.1-61.33-33.18-3.31-1.36-5.51-4.54-5.62-8.12l-.38-12.76"/>
        <path class="cls-2" d="m110.96,234.22s14.64-27.71,17.24-27.24c1.25.51-13.34,50.97-9.45,77.84,2.36,16.27,9.73,33.36,23.91,42.81s53.75,14.08,77.28,11.68c19.9-2.04,41.7-7.97,56.71-27.24,14.3-18.36,13.62-43.64,8.9-70.05-3.41-19.05-6.53-30-8-34.62-.07-.21.23-.33.33-.13,3.36,6.78,12.72,25.25,16.56,28.64"/>
        <path class="cls-2" d="m172.12,50.19v12.86c0,3.34-1.93,6.37-4.96,7.77-13.89,6.45-52.69,24.89-60.65,33.3-26.08,27.57-30.02,78.95-30.02,78.95"/>
        <path class="cls-2" d="m125.42,139.7s-5.93,16.86-8.9,31.32-1.5,25.2,7.04,30.76c11.68,7.6,27.43,3.34,48.19-10.01"/>
        <path class="cls-2" d="m282.39,140.44s3.98,16.12,6.94,30.58c2.97,14.46,1.5,25.2-7.04,30.76-11.68,7.6-27.43,3.34-48.19-10.01"/>
        <ellipse class="cls-3" cx="203.62" cy="287.78" rx="3.34" ry="2.97"/>
        <circle class="cls-7" cx="141.26" cy="185.02" r="2.5"/>
        <circle class="cls-7" cx="267.34" cy="190.46" r="2.5"/>
      </g>
    </g>
  </g>
</svg>