<?xml version="1.0" encoding="UTF-8"?>
<svg id="Layer_2" data-name="Layer 2" xmlns="http://www.w3.org/2000/svg" viewBox="0 0 401 401">
  <defs>
    <style>
      .cls-1 {
        stroke-width: 5.88px;
      }

      .cls-1, .cls-2, .cls-3, .cls-4, .cls-5, .cls-6 {
        stroke-miterlimit: 10;
      }

      .cls-1, .cls-2, .cls-3, .cls-4, .cls-6 {
        fill: none;
        stroke: #000;
      }

      .cls-1, .cls-3, .cls-4, .cls-6 {
        stroke-linecap: round;
      }

      .cls-2, .cls-6 {
        stroke-width: 6.27px;
      }

      .cls-3 {
        stroke-width: 7.17px;
      }

      .cls-4 {
        stroke-width: 6.79px;
      }

      .cls-5 {
        fill: #fff;
        stroke: #fff;
      }

      .cls-7 {
        fill: #fca17a;
      }

      .cls-8 {
        fill: #fcbfab;
      }
    </style>
  </defs>
  <g id="Layer_2-2" data-name="Layer 2">
    <g>
      <rect class="cls-5" x=".5" y=".5" width="400" height="400"/>
      <g>
        <path class="cls-8" d="m135.52,357.31s34.87,4.32,27.9-66.09c0,0,24.74,9.3,36.53,8.3,11.79-1,30.55-5.31,30.55-5.31l15.61-8.97s-1.83,37.19,1.33,38.85c0,0,1.66,15.77,5.98,23.25,0,0,17.77,12.79,20.26,8.63l-138.15,1.33Z"/>
        <path class="cls-7" d="m180.9,332.01s8.15-14.46,33.73-14.46,30.39-5.19,30.39-5.19l1.41-25.55s-12.16,7.76-28.84,10.35-37.44-.37-37.44-.37l.74,35.21Z"/>
        <g>
          <g>
            <path class="cls-7" d="m269.2,356.29c1.93.62,3.48.74,4.25-.04l-4.25.04Z"/>
            <path class="cls-7" d="m135.52,357.31s1.06.13,2.78-.03l-2.78.03Z"/>
            <path class="cls-7" d="m192.6,299.18c-12.5-1.69-29.19-7.96-29.19-7.96,5.76,58.11-17,65.32-25.11,66.06l30.61-.29c8.83-1.72,26.44-10.99,23.69-57.81Z"/>
          </g>
          <path class="cls-8" d="m303.68,159.16c-4.48,79.76-38.48,137.67-103.11,139.54-64.63,1.87-100.87-76.21-103.11-139.54-2.24-63.33,25.03-118.99,103.11-118.99s103.11,41.93,103.11,118.99Z"/>
          <path class="cls-7" d="m147.81,252.03c-19.26-23.74-27.3-44.5-28.69-107.82-.81-37.08,7.49-71.5,30.67-93.69-39.44,18.97-54,61.69-52.34,108.63,2.24,63.33,31.93,110.97,62.56,128.41,21.06,11.99-6.99-29.1-12.2-35.53Z"/>
          <path class="cls-3" d="m164.25,233.02s1.49,21.3,34.37,21.67c0,0,30.64,1.87,38.11-17.93"/>
          <circle cx="153.04" cy="159.8" r="6.72"/>
          <circle cx="245.69" cy="159.8" r="6.72"/>
          <path class="cls-3" d="m131.37,142.61c2.96-2,10.09-6.23,20.17-6.72,10.71-.53,18.59,3.46,21.67,5.23"/>
          <path class="cls-3" d="m224.02,141.12c2.1-1.58,10.82-7.76,23.16-6.72,11,.92,18.07,7.01,20.17,8.97"/>
          <path class="cls-4" d="m188.57,196.55c-1.76,6.08,1.55,11.69,6.74,12.74,4.18.85,9.08-1.37,11.9-5.56"/>
          <path class="cls-2" d="m303.68,159.16c-4.48,79.76-38.48,137.67-103.11,139.54-64.63,1.87-100.87-76.21-103.11-139.54-2.24-63.33,25.03-118.99,103.11-118.99s103.11,41.93,103.11,118.99Z"/>
          <path class="cls-6" d="m273.34,355.56c-36.61,1.12-26.9-68.74-26.9-68.74"/>
          <path class="cls-6" d="m163.08,289.57s9.71,69.86-26.9,68.74"/>
          <path class="cls-2" d="m303.68,159.16c-4.48,79.76-38.48,137.67-103.11,139.54-64.63,1.87-100.87-76.21-103.11-139.54-2.24-63.33,25.03-118.99,103.11-118.99s103.11,41.93,103.11,118.99Z"/>
          <path class="cls-1" d="m175.7,63.72c-3.5-5.81-8.51-16.94-2.32-28.37.78-1.43,1.67-2.77,2.66-4.02"/>
          <path class="cls-1" d="m188.46,58.14c-3.5-5.81-8.51-16.94-2.32-28.37.78-1.43,1.67-2.77,2.66-4.02"/>
          <path class="cls-1" d="m205.06,65.73c-3.5-5.81-8.51-16.94-2.32-28.37.78-1.43,1.67-2.77,2.66-4.02"/>
          <path class="cls-1" d="m222.33,59.25c-3.5-5.81-8.51-16.94-2.32-28.37.78-1.43,1.67-2.77,2.66-4.02"/>
        </g>
      </g>
    </g>
  </g>
</svg>