<?xml version="1.0" encoding="UTF-8"?>
<svg id="Layer_2" data-name="Layer 2" xmlns="http://www.w3.org/2000/svg" viewBox="0 0 401 401">
  <defs>
    <style>
      .cls-1 {
        stroke-width: 8.29px;
      }

      .cls-1, .cls-2 {
        fill: none;
        stroke: #231f20;
        stroke-linecap: round;
        stroke-linejoin: bevel;
      }

      .cls-2 {
        stroke-width: 7px;
      }

      .cls-3 {
        fill: #fff;
        stroke: #fff;
        stroke-miterlimit: 10;
      }

      .cls-4 {
        fill: #fca17a;
      }

      .cls-5 {
        fill: #fcbfab;
      }
    </style>
  </defs>
  <g id="Layer_2-2" data-name="Layer 2">
    <g>
      <rect class="cls-3" x=".5" y=".5" width="400" height="400"/>
      <g>
        <path class="cls-5" d="m328.78,269.66c-.21.65-.44,1.27-.72,1.9-3.47,8.12-12.4,14.67-25.11,12.18-22.92-4.49-39.96-6.32-58.07-11.88-40.57-12.43-48.18-26.53-73.98-30.4-21.37-3.22-58.24,8.37-73.19-2.55-3.56-2.6-7.04-5.07-10.25-7.55-6.05-4.65-11.15-9.34-14.02-14.9-.12-.26-.23-.51-.36-.77-.75-1.57-1.32-3.2-1.66-4.92-.15-.68-.28-1.36-.34-2.07-.21-1.75-.2-3.61.04-5.57,2.87-23.57,17.46-52.37,30.36-83.27,0-.04.03-.06.04-.1l36,.3,66.33.55h1.12c-.04.11-.09.27-.15.47-.44,1.37-1.46,4.8-2.26,9.39-2.51,14.36,3.7,31.87,23.29,50.19,2.81,2.63,6.91,2.98,10,4.75,14.37,8.15,23.62,19.74,30.26,29.27,5.34,7.63,9.01,13.93,12.31,16.06,7.52,4.83,27.57,20.66,45.01,25.5,2.22.63,3.72,1.93,4.64,3.55,0,0,0,.01.01.02.46.78.78,1.63.98,2.52.61,2.52.36,5.28-.28,7.33Z"/>
        <path class="cls-4" d="m257.6,254.44c15.75,5.19,61.7,9.98,69.71,11.94-4.51,7.88-12.39,16.16-25.09,13.67-22.92-4.49-39.31-9.29-58.07-11.88-9.57-1.32-48.18-26.53-73.98-30.4-9.98-1.51-23.36.22-36.31,1.38-13.84,1.23-27.19,1.81-35.34-2.94-.54-.3-1.06-.63-1.54-.99-11.83-8.62-22.79-15.9-25.89-26.53-.09-.26-.16-.52-.21-.78-.66-2.6-.85-5.4-.48-8.48,2.77-22.64,16.33-50.1,28.81-79.61h.68s1.6.03,1.6.03c0-.04.03-.06.04-.1l33.71.28c-.03.08-21.05-.02-21.08.04-7.14,16.99-11.86,30.95-17.61,45.41s-14.21,35.23.74,46.15c14.95,10.91,62.47,6.85,83.4,12.23,22.05,5.68,66.51,27.15,76.91,30.58Z"/>
        <path class="cls-4" d="m328.76,263.45c-.16-1.13-.42-2.43-.67-3.64-.01,0-.01-.02-.01-.02-.54-2.58-1.05-4.76-.54-4.09.16.22.32.45.45.67,1.08,1.76,1.49,3.86,1.08,5.95-.08.38-.16.76-.31,1.12Z"/>
        <path class="cls-4" d="m328.36,266.63l-1.05-.25c.34-.6.67-1.22.98-1.81.19-.37.35-.74.46-1.13.29,1.9.3,3.35-.4,3.19Z"/>
        <path class="cls-1" d="m139.41,151.73s-18.22,22.44,9.94,28.18"/>
        <path class="cls-2" d="m204.64,117.58c-1.14,3.37-10.41,37.99,20.88,60.05,27.28,19.23,38.41,36.43,57.05,53.95.03.04.07.06.11.1.95.89,1.94,1.77,2.97,2.62,1.44,1.19,17.31,14.15,37.45,18.91,10.88,2.57,7.82,15.14,5.2,18.1-6.22,7.03-11.99,12.08-25.67,9.4-22.92-4.49-35.78-3.95-53.97-9.21-28.9-8.36-48.13-26.64-73.94-30.5-21.37-3.22-61.61.05-77.34-5.11-17.58-5.77-28.55-19.66-26.59-35.79,2.88-23.6,17.49-52.43,30.4-83.37"/>
      </g>
    </g>
  </g>
</svg>