<?xml version="1.0" encoding="UTF-8"?>
<svg id="Layer_2" data-name="Layer 2" xmlns="http://www.w3.org/2000/svg" viewBox="0 0 401 401">
  <defs>
    <style>
      .cls-1 {
        stroke-width: 5.2px;
      }

      .cls-1, .cls-2, .cls-3, .cls-4, .cls-5 {
        fill: none;
        stroke-linecap: round;
      }

      .cls-1, .cls-2, .cls-3, .cls-4, .cls-5, .cls-6 {
        stroke-miterlimit: 10;
      }

      .cls-1, .cls-3, .cls-5 {
        stroke: #fca17a;
      }

      .cls-2, .cls-4 {
        stroke: #000;
      }

      .cls-2, .cls-5 {
        stroke-width: 6px;
      }

      .cls-3 {
        stroke-width: 4.3px;
      }

      .cls-4 {
        stroke-width: 5.89px;
      }

      .cls-6 {
        fill: #fff;
        stroke: #fff;
      }

      .cls-7 {
        fill: #fca17a;
      }

      .cls-8 {
        fill: #fcbfab;
      }
    </style>
  </defs>
  <g id="Layer_2-2" data-name="Layer 2">
    <g>
      <rect class="cls-6" x=".5" y=".5" width="400" height="400"/>
      <g>
        <g>
          <path class="cls-8" d="m162.76,339.81l1.09-41.52s-10.38-16.94-18.57-36.06c-8.19-19.12-36.06-86.31-36.06-86.31,0,0-5.46-15.3,7.65-20.76s18.44,9.92,18.44,9.92c0,0,21.04,41.92,29.73,58.56.67,1.28,2.61.61,2.36-.8,0,0-16.66-145.25-16.66-145.25,0,0-1.24-11.98,12.02-13.11,15.39-1.32,16.39,13.11,16.39,13.11l12.88,94.78c.15,1.07,1.73.95,1.71-.13l-1.21-104.29s1.87-10.76,11.74-11.12c9.3-.34,15.3,5.46,15.3,10.93,0,4.01.97,70.36,1.49,105.32.03,1.78,2.63,1.91,2.85.14l12.05-100s2.26-9.94,13.33-7.76c11.1,2.19,8.53,16.5,8.53,16.5l-9.68,95.09c-.12.88,1.16,8.74,3.74,1.64,7.02-19.31,17.95-71.59,17.95-71.59,0,0,2.84-8.42,12.02-5.46,13.03,4.2,10.93,13.11,10.93,13.11l-18.92,83.63c-1.22,5.41-1.78,10.96-1.67,16.51l.71,33.5c.15,6.85-.9,13.67-3.12,20.15-1.86,5.44-4.39,12.01-7.24,17.32-3.08,5.72-4.84,12.05-4.98,18.55l-.85,39.79-93.96-4.37Z"/>
          <g>
            <path class="cls-7" d="m251.65,179.39c-.12.88,7.8.06,8.08-.78,4.41-13.28,11.44-44.46,17.1-62.55,2.78-8.9,12.09-9.73,7.92-13.2,0,0-8.97-.13-7.64-1.67-7.8-1.43-7.27,5.91-7.27,5.91,0,0-4.63,17.88-10.94,36.98l-7.25,35.31Z"/>
            <path class="cls-7" d="m225.59,171.35c.03,1.78,5.98-1.79,6.19-3.56l12.48-82.8c.3-1.98,1.09-3.84,2.3-5.44,2.38-3.13,6.42-8.34,8.02-9.93-10.56-9.59-16.4.56-16.4.56l-9.27,61.5c.2,14.01-3.49,28.88-3.33,39.66Z"/>
            <path class="cls-7" d="m195.81,171.62c.15,1.07,5.42-2.74,5.4-3.82l2.25-93.13c.08-3.13,1.43-6.09,3.75-8.19,1.99-1.8,4.41-3.98,6.23-5.61-.41,0,10.15-3.2-10.98-4.03-9.87-.39-9.93,11.11-9.93,11.11l.55,47.43,2.72,56.23Z"/>
            <path class="cls-7" d="m165.37,205.09c3.11,6.1,1.51,14.78,3.63,18.84.67,1.28,6.1-6.42,5.85-7.83,0,0-9.5-121.59-9.5-121.59,0,0,0-18.9,2.5-27.66-.21.01-4.87-2.39-5.09-2.37-13.26,1.13-9.5,13.77-9.5,13.77,0,0,7.67,88.09,12.11,126.84Z"/>
            <path class="cls-7" d="m171.18,337.01l1.09-41.52s-10.38-16.94-18.57-36.06c-8.19-19.12-36.06-86.31-36.06-86.31,0,0-4.54-12.74,4.64-19.12-1.63,0-3.43.34-5.41,1.17-13.11,5.46-7.65,20.76-7.65,20.76,0,0,27.86,67.19,36.06,86.31,8.19,19.12,18.57,36.06,18.57,36.06l-1.09,41.52,93.96,4.37.07-3.19-85.61-3.98Z"/>
          </g>
          <path class="cls-7" d="m162.78,339.78s9.33-44.34,9.49-44.3c7.17,15.28,83.84,29.35,83.84,29.35l.63,19.33-93.96-4.37Z"/>
          <path class="cls-2" d="m162.76,339.81l1.09-41.52s-10.38-16.94-18.57-36.06c-8.19-19.12-36.06-86.31-36.06-86.31,0,0-5.46-15.3,7.65-20.76s18.32,8.61,18.32,8.61c4.49,13.2,21.16,43.23,29.86,59.87.67,1.28,2.61.61,2.36-.8,0,0-12.9-132.5-12.9-132.5,0,0-5.01-24.73,8.25-25.86,15.39-1.32,16.39,13.11,16.39,13.11l12.88,94.78c.15,1.07,1.73.95,1.71-.13l.8-97.19s-2.22-19.46,9.74-18.22c9.25.96,15.3,5.46,15.3,10.93,0,4.01.97,70.36,1.49,105.32.03,1.78,2.63,1.91,2.85.14l11.91-94.28s.28-17.93,13.47-13.49c10.72,3.61,8.53,16.5,8.53,16.5l-10.61,97.66c-.12.88,3.46,2.95,3.74,2.1,6.47-19.5,18.89-74.64,18.89-74.64,0,0,2.84-8.42,12.02-5.46,13.03,4.2,10.93,13.11,10.93,13.11l-18.92,83.63c-1.22,5.41-1.78,10.96-1.67,16.51l.71,33.5c.15,6.85-.9,13.67-3.12,20.15-1.86,5.44-4.39,12.01-7.24,17.32-3.08,5.72-4.84,12.05-4.98,18.55l-.85,39.79"/>
        </g>
        <path class="cls-4" d="m179.95,187.32c0,4.51,2.16,8.15,4.82,8.15"/>
        <path class="cls-4" d="m205.89,188.06c0,3.69,2.16,6.67,4.82,6.67"/>
        <path class="cls-4" d="m233.69,189.91c0,3.48,1.49,6.3,3.34,6.3"/>
        <path class="cls-4" d="m259.64,195.84c0,2.25-1.66,4.08-3.71,4.08"/>
        <path class="cls-5" d="m191.81,264.78c0-27.25-1.66-49.3-3.71-49.3"/>
        <path class="cls-1" d="m211.47,266.28c2.64-27.12,3.53-49.19,2-49.34"/>
        <path class="cls-1" d="m228.77,268.05c6.82-26.38,11.14-48.04,9.65-48.42"/>
        <path class="cls-3" d="m244.84,271.27c6.36-24.57,10.62-44.69,9.52-44.97"/>
      </g>
    </g>
  </g>
</svg>