<?xml version="1.0" encoding="UTF-8"?>
<svg id="Layer_2" data-name="Layer 2" xmlns="http://www.w3.org/2000/svg" viewBox="0 0 401 401">
  <defs>
    <style>
      .cls-1 {
        fill: none;
        stroke: #231f20;
        stroke-linecap: round;
        stroke-width: 7px;
      }

      .cls-1, .cls-2 {
        stroke-miterlimit: 10;
      }

      .cls-2 {
        fill: #fff;
        stroke: #fff;
      }

      .cls-3 {
        fill: #fca17a;
      }

      .cls-4 {
        fill: #fcbfab;
      }
    </style>
  </defs>
  <g id="Layer_2-2" data-name="Layer 2">
    <g>
      <rect class="cls-2" x=".5" y=".5" width="400" height="400"/>
      <g>
        <path class="cls-3" d="m283.32,333.53l-22.05,5.02c2.43-14.75,4.19-30.04,2.48-44.45-5.08-42.86-24.25-40.6-23.69-102.07.11-12.31,11.28-47.37,11.28-47.37,0,0-143.79,45.68-173.68,41.73l13.74-21.16c.25,9.22,20.2-5.47,29.35-6.71,34.66-4.67,100.61-23.86,134.79-34.22,9.22-2.79,17.93,5.61,15.46,14.92-2.56,9.65-4.94,20.09-4.99,25.74-.56,61.47,18.61,59.21,23.69,102.07,2.58,21.79-2.74,45.55-6.37,66.5Z"/>
        <path class="cls-4" d="m324.65,323.98s0,.04-.02.14l-41.32,9.4c3.63-20.95,8.95-44.71,6.37-66.5-5.08-42.86-24.25-40.6-23.69-102.07.05-5.65,2.43-16.09,4.99-25.74,2.48-9.31-6.24-17.71-15.46-14.92-34.17,10.36-100.13,29.54-134.79,34.22-9.14,1.23-43.92,34.46-44.18,25.24l-2.04-120.83,202.75.54s40.03-5.08,45.11,46.23c5.07,51.31,2.26,214.29,2.26,214.29Z"/>
        <path class="cls-1" d="m77.18,185.45c29.89,3.95,175.28-41.66,175.28-41.66,0,0-11.17,35.06-11.28,47.37-.56,61.47,18.61,59.21,23.69,102.07,1.7,14.42-4.4,40.43-3.34,45.28"/>
        <path class="cls-1" d="m326.73,323.72c-.95-4.31-.88-5.23-.84-7.4.37-23.47,2.28-160.52-2.37-207.49-5.08-51.31-45.11-46.23-45.11-46.23H102.08l-27.82.06"/>
      </g>
    </g>
  </g>
</svg>